<svg width="588" height="226" viewBox="0 0 588 226" fill="none" xmlns="http://www.w3.org/2000/svg">
<path d="M565 161L102 161" stroke="#CBD5E1" stroke-dasharray="3 3"/>
<path d="M565 85L102 85" stroke="#CBD5E1" stroke-dasharray="3 3"/>
<path d="M565 123L102 123" stroke="#CBD5E1" stroke-dasharray="3 3"/>
<path d="M565 47L102 47" stroke="#CBD5E1" stroke-dasharray="3 3"/>
<path d="M26.6729 41.4014H27.5752C28.0173 41.4014 28.3818 41.3285 28.6689 41.1826C28.9606 41.0322 29.1771 40.8294 29.3184 40.5742C29.4642 40.3145 29.5371 40.0228 29.5371 39.6992C29.5371 39.3164 29.4733 38.9951 29.3457 38.7354C29.2181 38.4756 29.0267 38.2796 28.7715 38.1475C28.5163 38.0153 28.1927 37.9492 27.8008 37.9492C27.4453 37.9492 27.1309 38.0199 26.8574 38.1611C26.5885 38.2979 26.3766 38.4938 26.2217 38.749C26.0713 39.0042 25.9961 39.305 25.9961 39.6514H24.7314C24.7314 39.1455 24.859 38.6852 25.1143 38.2705C25.3695 37.8558 25.7272 37.5254 26.1875 37.2793C26.6523 37.0332 27.1901 36.9102 27.8008 36.9102C28.4023 36.9102 28.9287 37.0173 29.3799 37.2314C29.8311 37.4411 30.182 37.7555 30.4326 38.1748C30.6833 38.5895 30.8086 39.1068 30.8086 39.7266C30.8086 39.9772 30.7493 40.2461 30.6309 40.5332C30.5169 40.8158 30.3369 41.0801 30.0908 41.3262C29.8493 41.5723 29.5348 41.7751 29.1475 41.9346C28.7601 42.0895 28.2952 42.167 27.7529 42.167H26.6729V41.4014ZM26.6729 42.4404V41.6816H27.7529C28.3864 41.6816 28.9105 41.7568 29.3252 41.9072C29.7399 42.0576 30.0658 42.2581 30.3027 42.5088C30.5443 42.7594 30.7129 43.0352 30.8086 43.3359C30.9089 43.6322 30.959 43.9284 30.959 44.2246C30.959 44.6895 30.8792 45.1019 30.7197 45.4619C30.5648 45.8219 30.3438 46.1273 30.0566 46.3779C29.7741 46.6286 29.4414 46.8177 29.0586 46.9453C28.6758 47.0729 28.2588 47.1367 27.8076 47.1367C27.3747 47.1367 26.9668 47.0752 26.584 46.9521C26.2057 46.8291 25.8708 46.6514 25.5791 46.4189C25.2874 46.182 25.0596 45.8926 24.8955 45.5508C24.7314 45.2044 24.6494 44.8102 24.6494 44.3682H25.9141C25.9141 44.7145 25.9893 45.0176 26.1396 45.2773C26.2946 45.5371 26.5133 45.7399 26.7959 45.8857C27.083 46.027 27.4202 46.0977 27.8076 46.0977C28.195 46.0977 28.5277 46.0316 28.8057 45.8994C29.0882 45.7627 29.3047 45.5576 29.4551 45.2842C29.61 45.0107 29.6875 44.6667 29.6875 44.252C29.6875 43.8372 29.6009 43.4977 29.4277 43.2334C29.2546 42.9645 29.0085 42.7663 28.6895 42.6387C28.375 42.5065 28.0036 42.4404 27.5752 42.4404H26.6729ZM34.1172 36.5V37.375C34.1172 37.6484 34.0693 37.9378 33.9736 38.2432C33.8825 38.5439 33.748 38.8356 33.5703 39.1182C33.3926 39.3962 33.1784 39.64 32.9277 39.8496L32.2031 39.3506C32.4173 39.0498 32.5791 38.7422 32.6885 38.4277C32.8024 38.1087 32.8594 37.7646 32.8594 37.3955V36.5H34.1172ZM41.7529 41.2305V42.748C41.7529 43.5638 41.68 44.252 41.5342 44.8125C41.3883 45.373 41.1787 45.8242 40.9053 46.166C40.6318 46.5078 40.3014 46.7562 39.9141 46.9111C39.5312 47.0615 39.0983 47.1367 38.6152 47.1367C38.2324 47.1367 37.8792 47.0889 37.5557 46.9932C37.2321 46.8975 36.9404 46.7448 36.6807 46.5352C36.4255 46.321 36.2067 46.043 36.0244 45.7012C35.8421 45.3594 35.7031 44.9447 35.6074 44.457C35.5117 43.9694 35.4639 43.3997 35.4639 42.748V41.2305C35.4639 40.4147 35.5368 39.7311 35.6826 39.1797C35.833 38.6283 36.0449 38.1862 36.3184 37.8535C36.5918 37.5163 36.9199 37.2747 37.3027 37.1289C37.6901 36.9831 38.123 36.9102 38.6016 36.9102C38.9889 36.9102 39.3444 36.958 39.668 37.0537C39.9961 37.1449 40.2878 37.293 40.543 37.498C40.7982 37.6986 41.0146 37.9674 41.1924 38.3047C41.3747 38.6374 41.5137 39.0452 41.6094 39.5283C41.7051 40.0114 41.7529 40.5788 41.7529 41.2305ZM40.4814 42.9531V41.0186C40.4814 40.5719 40.4541 40.18 40.3994 39.8428C40.3493 39.501 40.2741 39.2093 40.1738 38.9678C40.0736 38.7262 39.946 38.5303 39.791 38.3799C39.6406 38.2295 39.4652 38.1201 39.2646 38.0518C39.0687 37.9788 38.8477 37.9424 38.6016 37.9424C38.3008 37.9424 38.0342 37.9993 37.8018 38.1133C37.5693 38.2227 37.3734 38.3981 37.2139 38.6396C37.0589 38.8812 36.9404 39.1979 36.8584 39.5898C36.7764 39.9818 36.7354 40.458 36.7354 41.0186V42.9531C36.7354 43.3997 36.7604 43.7939 36.8105 44.1357C36.8652 44.4775 36.945 44.7738 37.0498 45.0244C37.1546 45.2705 37.2822 45.4733 37.4326 45.6328C37.583 45.7923 37.7562 45.9108 37.9521 45.9883C38.1527 46.0612 38.3737 46.0977 38.6152 46.0977C38.9251 46.0977 39.1963 46.0384 39.4287 45.9199C39.6611 45.8014 39.8548 45.6169 40.0098 45.3662C40.1693 45.111 40.2878 44.7852 40.3652 44.3887C40.4427 43.9876 40.4814 43.5091 40.4814 42.9531ZM49.6279 41.2305V42.748C49.6279 43.5638 49.555 44.252 49.4092 44.8125C49.2633 45.373 49.0537 45.8242 48.7803 46.166C48.5068 46.5078 48.1764 46.7562 47.7891 46.9111C47.4062 47.0615 46.9733 47.1367 46.4902 47.1367C46.1074 47.1367 45.7542 47.0889 45.4307 46.9932C45.1071 46.8975 44.8154 46.7448 44.5557 46.5352C44.3005 46.321 44.0817 46.043 43.8994 45.7012C43.7171 45.3594 43.5781 44.9447 43.4824 44.457C43.3867 43.9694 43.3389 43.3997 43.3389 42.748V41.2305C43.3389 40.4147 43.4118 39.7311 43.5576 39.1797C43.708 38.6283 43.9199 38.1862 44.1934 37.8535C44.4668 37.5163 44.7949 37.2747 45.1777 37.1289C45.5651 36.9831 45.998 36.9102 46.4766 36.9102C46.8639 36.9102 47.2194 36.958 47.543 37.0537C47.8711 37.1449 48.1628 37.293 48.418 37.498C48.6732 37.6986 48.8896 37.9674 49.0674 38.3047C49.2497 38.6374 49.3887 39.0452 49.4844 39.5283C49.5801 40.0114 49.6279 40.5788 49.6279 41.2305ZM48.3564 42.9531V41.0186C48.3564 40.5719 48.3291 40.18 48.2744 39.8428C48.2243 39.501 48.1491 39.2093 48.0488 38.9678C47.9486 38.7262 47.821 38.5303 47.666 38.3799C47.5156 38.2295 47.3402 38.1201 47.1396 38.0518C46.9437 37.9788 46.7227 37.9424 46.4766 37.9424C46.1758 37.9424 45.9092 37.9993 45.6768 38.1133C45.4443 38.2227 45.2484 38.3981 45.0889 38.6396C44.9339 38.8812 44.8154 39.1979 44.7334 39.5898C44.6514 39.9818 44.6104 40.458 44.6104 41.0186V42.9531C44.6104 43.3997 44.6354 43.7939 44.6855 44.1357C44.7402 44.4775 44.82 44.7738 44.9248 45.0244C45.0296 45.2705 45.1572 45.4733 45.3076 45.6328C45.458 45.7923 45.6312 45.9108 45.8271 45.9883C46.0277 46.0612 46.2487 46.0977 46.4902 46.0977C46.8001 46.0977 47.0713 46.0384 47.3037 45.9199C47.5361 45.8014 47.7298 45.6169 47.8848 45.3662C48.0443 45.111 48.1628 44.7852 48.2402 44.3887C48.3177 43.9876 48.3564 43.5091 48.3564 42.9531ZM57.5029 41.2305V42.748C57.5029 43.5638 57.43 44.252 57.2842 44.8125C57.1383 45.373 56.9287 45.8242 56.6553 46.166C56.3818 46.5078 56.0514 46.7562 55.6641 46.9111C55.2812 47.0615 54.8483 47.1367 54.3652 47.1367C53.9824 47.1367 53.6292 47.0889 53.3057 46.9932C52.9821 46.8975 52.6904 46.7448 52.4307 46.5352C52.1755 46.321 51.9567 46.043 51.7744 45.7012C51.5921 45.3594 51.4531 44.9447 51.3574 44.457C51.2617 43.9694 51.2139 43.3997 51.2139 42.748V41.2305C51.2139 40.4147 51.2868 39.7311 51.4326 39.1797C51.583 38.6283 51.7949 38.1862 52.0684 37.8535C52.3418 37.5163 52.6699 37.2747 53.0527 37.1289C53.4401 36.9831 53.873 36.9102 54.3516 36.9102C54.7389 36.9102 55.0944 36.958 55.418 37.0537C55.7461 37.1449 56.0378 37.293 56.293 37.498C56.5482 37.6986 56.7646 37.9674 56.9424 38.3047C57.1247 38.6374 57.2637 39.0452 57.3594 39.5283C57.4551 40.0114 57.5029 40.5788 57.5029 41.2305ZM56.2314 42.9531V41.0186C56.2314 40.5719 56.2041 40.18 56.1494 39.8428C56.0993 39.501 56.0241 39.2093 55.9238 38.9678C55.8236 38.7262 55.696 38.5303 55.541 38.3799C55.3906 38.2295 55.2152 38.1201 55.0146 38.0518C54.8187 37.9788 54.5977 37.9424 54.3516 37.9424C54.0508 37.9424 53.7842 37.9993 53.5518 38.1133C53.3193 38.2227 53.1234 38.3981 52.9639 38.6396C52.8089 38.8812 52.6904 39.1979 52.6084 39.5898C52.5264 39.9818 52.4854 40.458 52.4854 41.0186V42.9531C52.4854 43.3997 52.5104 43.7939 52.5605 44.1357C52.6152 44.4775 52.695 44.7738 52.7998 45.0244C52.9046 45.2705 53.0322 45.4733 53.1826 45.6328C53.333 45.7923 53.5062 45.9108 53.7021 45.9883C53.9027 46.0612 54.1237 46.0977 54.3652 46.0977C54.6751 46.0977 54.9463 46.0384 55.1787 45.9199C55.4111 45.8014 55.6048 45.6169 55.7598 45.3662C55.9193 45.111 56.0378 44.7852 56.1152 44.3887C56.1927 43.9876 56.2314 43.5091 56.2314 42.9531ZM60.5449 36.5V37.375C60.5449 37.6484 60.4971 37.9378 60.4014 38.2432C60.3102 38.5439 60.1758 38.8356 59.998 39.1182C59.8203 39.3962 59.6061 39.64 59.3555 39.8496L58.6309 39.3506C58.8451 39.0498 59.0068 38.7422 59.1162 38.4277C59.2301 38.1087 59.2871 37.7646 59.2871 37.3955V36.5H60.5449ZM68.1807 41.2305V42.748C68.1807 43.5638 68.1077 44.252 67.9619 44.8125C67.8161 45.373 67.6064 45.8242 67.333 46.166C67.0596 46.5078 66.7292 46.7562 66.3418 46.9111C65.959 47.0615 65.526 47.1367 65.043 47.1367C64.6602 47.1367 64.307 47.0889 63.9834 46.9932C63.6598 46.8975 63.3682 46.7448 63.1084 46.5352C62.8532 46.321 62.6344 46.043 62.4521 45.7012C62.2699 45.3594 62.1309 44.9447 62.0352 44.457C61.9395 43.9694 61.8916 43.3997 61.8916 42.748V41.2305C61.8916 40.4147 61.9645 39.7311 62.1104 39.1797C62.2607 38.6283 62.4727 38.1862 62.7461 37.8535C63.0195 37.5163 63.3477 37.2747 63.7305 37.1289C64.1178 36.9831 64.5508 36.9102 65.0293 36.9102C65.4167 36.9102 65.7721 36.958 66.0957 37.0537C66.4238 37.1449 66.7155 37.293 66.9707 37.498C67.2259 37.6986 67.4424 37.9674 67.6201 38.3047C67.8024 38.6374 67.9414 39.0452 68.0371 39.5283C68.1328 40.0114 68.1807 40.5788 68.1807 41.2305ZM66.9092 42.9531V41.0186C66.9092 40.5719 66.8818 40.18 66.8271 39.8428C66.777 39.501 66.7018 39.2093 66.6016 38.9678C66.5013 38.7262 66.3737 38.5303 66.2188 38.3799C66.0684 38.2295 65.8929 38.1201 65.6924 38.0518C65.4964 37.9788 65.2754 37.9424 65.0293 37.9424C64.7285 37.9424 64.4619 37.9993 64.2295 38.1133C63.9971 38.2227 63.8011 38.3981 63.6416 38.6396C63.4867 38.8812 63.3682 39.1979 63.2861 39.5898C63.2041 39.9818 63.1631 40.458 63.1631 41.0186V42.9531C63.1631 43.3997 63.1882 43.7939 63.2383 44.1357C63.293 44.4775 63.3727 44.7738 63.4775 45.0244C63.5824 45.2705 63.71 45.4733 63.8604 45.6328C64.0107 45.7923 64.1839 45.9108 64.3799 45.9883C64.5804 46.0612 64.8014 46.0977 65.043 46.0977C65.3529 46.0977 65.624 46.0384 65.8564 45.9199C66.0889 45.8014 66.2826 45.6169 66.4375 45.3662C66.597 45.111 66.7155 44.7852 66.793 44.3887C66.8704 43.9876 66.9092 43.5091 66.9092 42.9531ZM76.0557 41.2305V42.748C76.0557 43.5638 75.9827 44.252 75.8369 44.8125C75.6911 45.373 75.4814 45.8242 75.208 46.166C74.9346 46.5078 74.6042 46.7562 74.2168 46.9111C73.834 47.0615 73.401 47.1367 72.918 47.1367C72.5352 47.1367 72.182 47.0889 71.8584 46.9932C71.5348 46.8975 71.2432 46.7448 70.9834 46.5352C70.7282 46.321 70.5094 46.043 70.3271 45.7012C70.1449 45.3594 70.0059 44.9447 69.9102 44.457C69.8145 43.9694 69.7666 43.3997 69.7666 42.748V41.2305C69.7666 40.4147 69.8395 39.7311 69.9854 39.1797C70.1357 38.6283 70.3477 38.1862 70.6211 37.8535C70.8945 37.5163 71.2227 37.2747 71.6055 37.1289C71.9928 36.9831 72.4258 36.9102 72.9043 36.9102C73.2917 36.9102 73.6471 36.958 73.9707 37.0537C74.2988 37.1449 74.5905 37.293 74.8457 37.498C75.1009 37.6986 75.3174 37.9674 75.4951 38.3047C75.6774 38.6374 75.8164 39.0452 75.9121 39.5283C76.0078 40.0114 76.0557 40.5788 76.0557 41.2305ZM74.7842 42.9531V41.0186C74.7842 40.5719 74.7568 40.18 74.7021 39.8428C74.652 39.501 74.5768 39.2093 74.4766 38.9678C74.3763 38.7262 74.2487 38.5303 74.0938 38.3799C73.9434 38.2295 73.7679 38.1201 73.5674 38.0518C73.3714 37.9788 73.1504 37.9424 72.9043 37.9424C72.6035 37.9424 72.3369 37.9993 72.1045 38.1133C71.8721 38.2227 71.6761 38.3981 71.5166 38.6396C71.3617 38.8812 71.2432 39.1979 71.1611 39.5898C71.0791 39.9818 71.0381 40.458 71.0381 41.0186V42.9531C71.0381 43.3997 71.0632 43.7939 71.1133 44.1357C71.168 44.4775 71.2477 44.7738 71.3525 45.0244C71.4574 45.2705 71.585 45.4733 71.7354 45.6328C71.8857 45.7923 72.0589 45.9108 72.2549 45.9883C72.4554 46.0612 72.6764 46.0977 72.918 46.0977C73.2279 46.0977 73.499 46.0384 73.7314 45.9199C73.9639 45.8014 74.1576 45.6169 74.3125 45.3662C74.472 45.111 74.5905 44.7852 74.668 44.3887C74.7454 43.9876 74.7842 43.5091 74.7842 42.9531ZM83.9307 41.2305V42.748C83.9307 43.5638 83.8577 44.252 83.7119 44.8125C83.5661 45.373 83.3564 45.8242 83.083 46.166C82.8096 46.5078 82.4792 46.7562 82.0918 46.9111C81.709 47.0615 81.276 47.1367 80.793 47.1367C80.4102 47.1367 80.057 47.0889 79.7334 46.9932C79.4098 46.8975 79.1182 46.7448 78.8584 46.5352C78.6032 46.321 78.3844 46.043 78.2021 45.7012C78.0199 45.3594 77.8809 44.9447 77.7852 44.457C77.6895 43.9694 77.6416 43.3997 77.6416 42.748V41.2305C77.6416 40.4147 77.7145 39.7311 77.8604 39.1797C78.0107 38.6283 78.2227 38.1862 78.4961 37.8535C78.7695 37.5163 79.0977 37.2747 79.4805 37.1289C79.8678 36.9831 80.3008 36.9102 80.7793 36.9102C81.1667 36.9102 81.5221 36.958 81.8457 37.0537C82.1738 37.1449 82.4655 37.293 82.7207 37.498C82.9759 37.6986 83.1924 37.9674 83.3701 38.3047C83.5524 38.6374 83.6914 39.0452 83.7871 39.5283C83.8828 40.0114 83.9307 40.5788 83.9307 41.2305ZM82.6592 42.9531V41.0186C82.6592 40.5719 82.6318 40.18 82.5771 39.8428C82.527 39.501 82.4518 39.2093 82.3516 38.9678C82.2513 38.7262 82.1237 38.5303 81.9688 38.3799C81.8184 38.2295 81.6429 38.1201 81.4424 38.0518C81.2464 37.9788 81.0254 37.9424 80.7793 37.9424C80.4785 37.9424 80.2119 37.9993 79.9795 38.1133C79.7471 38.2227 79.5511 38.3981 79.3916 38.6396C79.2367 38.8812 79.1182 39.1979 79.0361 39.5898C78.9541 39.9818 78.9131 40.458 78.9131 41.0186V42.9531C78.9131 43.3997 78.9382 43.7939 78.9883 44.1357C79.043 44.4775 79.1227 44.7738 79.2275 45.0244C79.3324 45.2705 79.46 45.4733 79.6104 45.6328C79.7607 45.7923 79.9339 45.9108 80.1299 45.9883C80.3304 46.0612 80.5514 46.0977 80.793 46.0977C81.1029 46.0977 81.374 46.0384 81.6064 45.9199C81.8389 45.8014 82.0326 45.6169 82.1875 45.3662C82.347 45.111 82.4655 44.7852 82.543 44.3887C82.6204 43.9876 82.6592 43.5091 82.6592 42.9531Z" fill="#71717A"/>
<path d="M31.3486 83.9609V85H24.834V84.0908L28.0947 80.4609C28.4958 80.0143 28.8057 79.6361 29.0244 79.3262C29.2477 79.0117 29.4027 78.7314 29.4893 78.4854C29.5804 78.2347 29.626 77.9795 29.626 77.7197C29.626 77.3916 29.5576 77.0954 29.4209 76.8311C29.2887 76.5622 29.0928 76.348 28.833 76.1885C28.5732 76.029 28.2588 75.9492 27.8896 75.9492C27.4476 75.9492 27.0785 76.0358 26.7822 76.209C26.4906 76.3776 26.2718 76.6146 26.126 76.9199C25.9801 77.2253 25.9072 77.5762 25.9072 77.9727H24.6426C24.6426 77.4121 24.7656 76.8994 25.0117 76.4346C25.2578 75.9697 25.6224 75.6006 26.1055 75.3271C26.5885 75.0492 27.1833 74.9102 27.8896 74.9102C28.5186 74.9102 29.0563 75.0218 29.5029 75.2451C29.9495 75.4639 30.2913 75.7738 30.5283 76.1748C30.7699 76.5713 30.8906 77.0361 30.8906 77.5693C30.8906 77.861 30.8405 78.1572 30.7402 78.458C30.6445 78.7542 30.5101 79.0505 30.3369 79.3467C30.1683 79.6429 29.9701 79.9346 29.7422 80.2217C29.5189 80.5088 29.2796 80.7913 29.0244 81.0693L26.3584 83.9609H31.3486ZM34.1172 74.5V75.375C34.1172 75.6484 34.0693 75.9378 33.9736 76.2432C33.8825 76.5439 33.748 76.8356 33.5703 77.1182C33.3926 77.3962 33.1784 77.64 32.9277 77.8496L32.2031 77.3506C32.4173 77.0498 32.5791 76.7422 32.6885 76.4277C32.8024 76.1087 32.8594 75.7646 32.8594 75.3955V74.5H34.1172ZM41.7529 79.2305V80.748C41.7529 81.5638 41.68 82.252 41.5342 82.8125C41.3883 83.373 41.1787 83.8242 40.9053 84.166C40.6318 84.5078 40.3014 84.7562 39.9141 84.9111C39.5312 85.0615 39.0983 85.1367 38.6152 85.1367C38.2324 85.1367 37.8792 85.0889 37.5557 84.9932C37.2321 84.8975 36.9404 84.7448 36.6807 84.5352C36.4255 84.321 36.2067 84.043 36.0244 83.7012C35.8421 83.3594 35.7031 82.9447 35.6074 82.457C35.5117 81.9694 35.4639 81.3997 35.4639 80.748V79.2305C35.4639 78.4147 35.5368 77.7311 35.6826 77.1797C35.833 76.6283 36.0449 76.1862 36.3184 75.8535C36.5918 75.5163 36.9199 75.2747 37.3027 75.1289C37.6901 74.9831 38.123 74.9102 38.6016 74.9102C38.9889 74.9102 39.3444 74.958 39.668 75.0537C39.9961 75.1449 40.2878 75.293 40.543 75.498C40.7982 75.6986 41.0146 75.9674 41.1924 76.3047C41.3747 76.6374 41.5137 77.0452 41.6094 77.5283C41.7051 78.0114 41.7529 78.5788 41.7529 79.2305ZM40.4814 80.9531V79.0186C40.4814 78.5719 40.4541 78.18 40.3994 77.8428C40.3493 77.501 40.2741 77.2093 40.1738 76.9678C40.0736 76.7262 39.946 76.5303 39.791 76.3799C39.6406 76.2295 39.4652 76.1201 39.2646 76.0518C39.0687 75.9788 38.8477 75.9424 38.6016 75.9424C38.3008 75.9424 38.0342 75.9993 37.8018 76.1133C37.5693 76.2227 37.3734 76.3981 37.2139 76.6396C37.0589 76.8812 36.9404 77.1979 36.8584 77.5898C36.7764 77.9818 36.7354 78.458 36.7354 79.0186V80.9531C36.7354 81.3997 36.7604 81.7939 36.8105 82.1357C36.8652 82.4775 36.945 82.7738 37.0498 83.0244C37.1546 83.2705 37.2822 83.4733 37.4326 83.6328C37.583 83.7923 37.7562 83.9108 37.9521 83.9883C38.1527 84.0612 38.3737 84.0977 38.6152 84.0977C38.9251 84.0977 39.1963 84.0384 39.4287 83.9199C39.6611 83.8014 39.8548 83.6169 40.0098 83.3662C40.1693 83.111 40.2878 82.7852 40.3652 82.3887C40.4427 81.9876 40.4814 81.5091 40.4814 80.9531ZM49.6279 79.2305V80.748C49.6279 81.5638 49.555 82.252 49.4092 82.8125C49.2633 83.373 49.0537 83.8242 48.7803 84.166C48.5068 84.5078 48.1764 84.7562 47.7891 84.9111C47.4062 85.0615 46.9733 85.1367 46.4902 85.1367C46.1074 85.1367 45.7542 85.0889 45.4307 84.9932C45.1071 84.8975 44.8154 84.7448 44.5557 84.5352C44.3005 84.321 44.0817 84.043 43.8994 83.7012C43.7171 83.3594 43.5781 82.9447 43.4824 82.457C43.3867 81.9694 43.3389 81.3997 43.3389 80.748V79.2305C43.3389 78.4147 43.4118 77.7311 43.5576 77.1797C43.708 76.6283 43.9199 76.1862 44.1934 75.8535C44.4668 75.5163 44.7949 75.2747 45.1777 75.1289C45.5651 74.9831 45.998 74.9102 46.4766 74.9102C46.8639 74.9102 47.2194 74.958 47.543 75.0537C47.8711 75.1449 48.1628 75.293 48.418 75.498C48.6732 75.6986 48.8896 75.9674 49.0674 76.3047C49.2497 76.6374 49.3887 77.0452 49.4844 77.5283C49.5801 78.0114 49.6279 78.5788 49.6279 79.2305ZM48.3564 80.9531V79.0186C48.3564 78.5719 48.3291 78.18 48.2744 77.8428C48.2243 77.501 48.1491 77.2093 48.0488 76.9678C47.9486 76.7262 47.821 76.5303 47.666 76.3799C47.5156 76.2295 47.3402 76.1201 47.1396 76.0518C46.9437 75.9788 46.7227 75.9424 46.4766 75.9424C46.1758 75.9424 45.9092 75.9993 45.6768 76.1133C45.4443 76.2227 45.2484 76.3981 45.0889 76.6396C44.9339 76.8812 44.8154 77.1979 44.7334 77.5898C44.6514 77.9818 44.6104 78.458 44.6104 79.0186V80.9531C44.6104 81.3997 44.6354 81.7939 44.6855 82.1357C44.7402 82.4775 44.82 82.7738 44.9248 83.0244C45.0296 83.2705 45.1572 83.4733 45.3076 83.6328C45.458 83.7923 45.6312 83.9108 45.8271 83.9883C46.0277 84.0612 46.2487 84.0977 46.4902 84.0977C46.8001 84.0977 47.0713 84.0384 47.3037 83.9199C47.5361 83.8014 47.7298 83.6169 47.8848 83.3662C48.0443 83.111 48.1628 82.7852 48.2402 82.3887C48.3177 81.9876 48.3564 81.5091 48.3564 80.9531ZM57.5029 79.2305V80.748C57.5029 81.5638 57.43 82.252 57.2842 82.8125C57.1383 83.373 56.9287 83.8242 56.6553 84.166C56.3818 84.5078 56.0514 84.7562 55.6641 84.9111C55.2812 85.0615 54.8483 85.1367 54.3652 85.1367C53.9824 85.1367 53.6292 85.0889 53.3057 84.9932C52.9821 84.8975 52.6904 84.7448 52.4307 84.5352C52.1755 84.321 51.9567 84.043 51.7744 83.7012C51.5921 83.3594 51.4531 82.9447 51.3574 82.457C51.2617 81.9694 51.2139 81.3997 51.2139 80.748V79.2305C51.2139 78.4147 51.2868 77.7311 51.4326 77.1797C51.583 76.6283 51.7949 76.1862 52.0684 75.8535C52.3418 75.5163 52.6699 75.2747 53.0527 75.1289C53.4401 74.9831 53.873 74.9102 54.3516 74.9102C54.7389 74.9102 55.0944 74.958 55.418 75.0537C55.7461 75.1449 56.0378 75.293 56.293 75.498C56.5482 75.6986 56.7646 75.9674 56.9424 76.3047C57.1247 76.6374 57.2637 77.0452 57.3594 77.5283C57.4551 78.0114 57.5029 78.5788 57.5029 79.2305ZM56.2314 80.9531V79.0186C56.2314 78.5719 56.2041 78.18 56.1494 77.8428C56.0993 77.501 56.0241 77.2093 55.9238 76.9678C55.8236 76.7262 55.696 76.5303 55.541 76.3799C55.3906 76.2295 55.2152 76.1201 55.0146 76.0518C54.8187 75.9788 54.5977 75.9424 54.3516 75.9424C54.0508 75.9424 53.7842 75.9993 53.5518 76.1133C53.3193 76.2227 53.1234 76.3981 52.9639 76.6396C52.8089 76.8812 52.6904 77.1979 52.6084 77.5898C52.5264 77.9818 52.4854 78.458 52.4854 79.0186V80.9531C52.4854 81.3997 52.5104 81.7939 52.5605 82.1357C52.6152 82.4775 52.695 82.7738 52.7998 83.0244C52.9046 83.2705 53.0322 83.4733 53.1826 83.6328C53.333 83.7923 53.5062 83.9108 53.7021 83.9883C53.9027 84.0612 54.1237 84.0977 54.3652 84.0977C54.6751 84.0977 54.9463 84.0384 55.1787 83.9199C55.4111 83.8014 55.6048 83.6169 55.7598 83.3662C55.9193 83.111 56.0378 82.7852 56.1152 82.3887C56.1927 81.9876 56.2314 81.5091 56.2314 80.9531ZM60.5449 74.5V75.375C60.5449 75.6484 60.4971 75.9378 60.4014 76.2432C60.3102 76.5439 60.1758 76.8356 59.998 77.1182C59.8203 77.3962 59.6061 77.64 59.3555 77.8496L58.6309 77.3506C58.8451 77.0498 59.0068 76.7422 59.1162 76.4277C59.2301 76.1087 59.2871 75.7646 59.2871 75.3955V74.5H60.5449ZM68.1807 79.2305V80.748C68.1807 81.5638 68.1077 82.252 67.9619 82.8125C67.8161 83.373 67.6064 83.8242 67.333 84.166C67.0596 84.5078 66.7292 84.7562 66.3418 84.9111C65.959 85.0615 65.526 85.1367 65.043 85.1367C64.6602 85.1367 64.307 85.0889 63.9834 84.9932C63.6598 84.8975 63.3682 84.7448 63.1084 84.5352C62.8532 84.321 62.6344 84.043 62.4521 83.7012C62.2699 83.3594 62.1309 82.9447 62.0352 82.457C61.9395 81.9694 61.8916 81.3997 61.8916 80.748V79.2305C61.8916 78.4147 61.9645 77.7311 62.1104 77.1797C62.2607 76.6283 62.4727 76.1862 62.7461 75.8535C63.0195 75.5163 63.3477 75.2747 63.7305 75.1289C64.1178 74.9831 64.5508 74.9102 65.0293 74.9102C65.4167 74.9102 65.7721 74.958 66.0957 75.0537C66.4238 75.1449 66.7155 75.293 66.9707 75.498C67.2259 75.6986 67.4424 75.9674 67.6201 76.3047C67.8024 76.6374 67.9414 77.0452 68.0371 77.5283C68.1328 78.0114 68.1807 78.5788 68.1807 79.2305ZM66.9092 80.9531V79.0186C66.9092 78.5719 66.8818 78.18 66.8271 77.8428C66.777 77.501 66.7018 77.2093 66.6016 76.9678C66.5013 76.7262 66.3737 76.5303 66.2188 76.3799C66.0684 76.2295 65.8929 76.1201 65.6924 76.0518C65.4964 75.9788 65.2754 75.9424 65.0293 75.9424C64.7285 75.9424 64.4619 75.9993 64.2295 76.1133C63.9971 76.2227 63.8011 76.3981 63.6416 76.6396C63.4867 76.8812 63.3682 77.1979 63.2861 77.5898C63.2041 77.9818 63.1631 78.458 63.1631 79.0186V80.9531C63.1631 81.3997 63.1882 81.7939 63.2383 82.1357C63.293 82.4775 63.3727 82.7738 63.4775 83.0244C63.5824 83.2705 63.71 83.4733 63.8604 83.6328C64.0107 83.7923 64.1839 83.9108 64.3799 83.9883C64.5804 84.0612 64.8014 84.0977 65.043 84.0977C65.3529 84.0977 65.624 84.0384 65.8564 83.9199C66.0889 83.8014 66.2826 83.6169 66.4375 83.3662C66.597 83.111 66.7155 82.7852 66.793 82.3887C66.8704 81.9876 66.9092 81.5091 66.9092 80.9531ZM76.0557 79.2305V80.748C76.0557 81.5638 75.9827 82.252 75.8369 82.8125C75.6911 83.373 75.4814 83.8242 75.208 84.166C74.9346 84.5078 74.6042 84.7562 74.2168 84.9111C73.834 85.0615 73.401 85.1367 72.918 85.1367C72.5352 85.1367 72.182 85.0889 71.8584 84.9932C71.5348 84.8975 71.2432 84.7448 70.9834 84.5352C70.7282 84.321 70.5094 84.043 70.3271 83.7012C70.1449 83.3594 70.0059 82.9447 69.9102 82.457C69.8145 81.9694 69.7666 81.3997 69.7666 80.748V79.2305C69.7666 78.4147 69.8395 77.7311 69.9854 77.1797C70.1357 76.6283 70.3477 76.1862 70.6211 75.8535C70.8945 75.5163 71.2227 75.2747 71.6055 75.1289C71.9928 74.9831 72.4258 74.9102 72.9043 74.9102C73.2917 74.9102 73.6471 74.958 73.9707 75.0537C74.2988 75.1449 74.5905 75.293 74.8457 75.498C75.1009 75.6986 75.3174 75.9674 75.4951 76.3047C75.6774 76.6374 75.8164 77.0452 75.9121 77.5283C76.0078 78.0114 76.0557 78.5788 76.0557 79.2305ZM74.7842 80.9531V79.0186C74.7842 78.5719 74.7568 78.18 74.7021 77.8428C74.652 77.501 74.5768 77.2093 74.4766 76.9678C74.3763 76.7262 74.2487 76.5303 74.0938 76.3799C73.9434 76.2295 73.7679 76.1201 73.5674 76.0518C73.3714 75.9788 73.1504 75.9424 72.9043 75.9424C72.6035 75.9424 72.3369 75.9993 72.1045 76.1133C71.8721 76.2227 71.6761 76.3981 71.5166 76.6396C71.3617 76.8812 71.2432 77.1979 71.1611 77.5898C71.0791 77.9818 71.0381 78.458 71.0381 79.0186V80.9531C71.0381 81.3997 71.0632 81.7939 71.1133 82.1357C71.168 82.4775 71.2477 82.7738 71.3525 83.0244C71.4574 83.2705 71.585 83.4733 71.7354 83.6328C71.8857 83.7923 72.0589 83.9108 72.2549 83.9883C72.4554 84.0612 72.6764 84.0977 72.918 84.0977C73.2279 84.0977 73.499 84.0384 73.7314 83.9199C73.9639 83.8014 74.1576 83.6169 74.3125 83.3662C74.472 83.111 74.5905 82.7852 74.668 82.3887C74.7454 81.9876 74.7842 81.5091 74.7842 80.9531ZM83.9307 79.2305V80.748C83.9307 81.5638 83.8577 82.252 83.7119 82.8125C83.5661 83.373 83.3564 83.8242 83.083 84.166C82.8096 84.5078 82.4792 84.7562 82.0918 84.9111C81.709 85.0615 81.276 85.1367 80.793 85.1367C80.4102 85.1367 80.057 85.0889 79.7334 84.9932C79.4098 84.8975 79.1182 84.7448 78.8584 84.5352C78.6032 84.321 78.3844 84.043 78.2021 83.7012C78.0199 83.3594 77.8809 82.9447 77.7852 82.457C77.6895 81.9694 77.6416 81.3997 77.6416 80.748V79.2305C77.6416 78.4147 77.7145 77.7311 77.8604 77.1797C78.0107 76.6283 78.2227 76.1862 78.4961 75.8535C78.7695 75.5163 79.0977 75.2747 79.4805 75.1289C79.8678 74.9831 80.3008 74.9102 80.7793 74.9102C81.1667 74.9102 81.5221 74.958 81.8457 75.0537C82.1738 75.1449 82.4655 75.293 82.7207 75.498C82.9759 75.6986 83.1924 75.9674 83.3701 76.3047C83.5524 76.6374 83.6914 77.0452 83.7871 77.5283C83.8828 78.0114 83.9307 78.5788 83.9307 79.2305ZM82.6592 80.9531V79.0186C82.6592 78.5719 82.6318 78.18 82.5771 77.8428C82.527 77.501 82.4518 77.2093 82.3516 76.9678C82.2513 76.7262 82.1237 76.5303 81.9688 76.3799C81.8184 76.2295 81.6429 76.1201 81.4424 76.0518C81.2464 75.9788 81.0254 75.9424 80.7793 75.9424C80.4785 75.9424 80.2119 75.9993 79.9795 76.1133C79.7471 76.2227 79.5511 76.3981 79.3916 76.6396C79.2367 76.8812 79.1182 77.1979 79.0361 77.5898C78.9541 77.9818 78.9131 78.458 78.9131 79.0186V80.9531C78.9131 81.3997 78.9382 81.7939 78.9883 82.1357C79.043 82.4775 79.1227 82.7738 79.2275 83.0244C79.3324 83.2705 79.46 83.4733 79.6104 83.6328C79.7607 83.7923 79.9339 83.9108 80.1299 83.9883C80.3304 84.0612 80.5514 84.0977 80.793 84.0977C81.1029 84.0977 81.374 84.0384 81.6064 83.9199C81.8389 83.8014 82.0326 83.6169 82.1875 83.3662C82.347 83.111 82.4655 82.7852 82.543 82.3887C82.6204 81.9876 82.6592 81.5091 82.6592 80.9531Z" fill="#71717A"/>
<path d="M28.9834 112.992V123H27.7188V114.571L25.1689 115.501V114.359L28.7852 112.992H28.9834ZM34.1172 112.5V113.375C34.1172 113.648 34.0693 113.938 33.9736 114.243C33.8825 114.544 33.748 114.836 33.5703 115.118C33.3926 115.396 33.1784 115.64 32.9277 115.85L32.2031 115.351C32.4173 115.05 32.5791 114.742 32.6885 114.428C32.8024 114.109 32.8594 113.765 32.8594 113.396V112.5H34.1172ZM41.7529 117.23V118.748C41.7529 119.564 41.68 120.252 41.5342 120.812C41.3883 121.373 41.1787 121.824 40.9053 122.166C40.6318 122.508 40.3014 122.756 39.9141 122.911C39.5312 123.062 39.0983 123.137 38.6152 123.137C38.2324 123.137 37.8792 123.089 37.5557 122.993C37.2321 122.897 36.9404 122.745 36.6807 122.535C36.4255 122.321 36.2067 122.043 36.0244 121.701C35.8421 121.359 35.7031 120.945 35.6074 120.457C35.5117 119.969 35.4639 119.4 35.4639 118.748V117.23C35.4639 116.415 35.5368 115.731 35.6826 115.18C35.833 114.628 36.0449 114.186 36.3184 113.854C36.5918 113.516 36.9199 113.275 37.3027 113.129C37.6901 112.983 38.123 112.91 38.6016 112.91C38.9889 112.91 39.3444 112.958 39.668 113.054C39.9961 113.145 40.2878 113.293 40.543 113.498C40.7982 113.699 41.0146 113.967 41.1924 114.305C41.3747 114.637 41.5137 115.045 41.6094 115.528C41.7051 116.011 41.7529 116.579 41.7529 117.23ZM40.4814 118.953V117.019C40.4814 116.572 40.4541 116.18 40.3994 115.843C40.3493 115.501 40.2741 115.209 40.1738 114.968C40.0736 114.726 39.946 114.53 39.791 114.38C39.6406 114.229 39.4652 114.12 39.2646 114.052C39.0687 113.979 38.8477 113.942 38.6016 113.942C38.3008 113.942 38.0342 113.999 37.8018 114.113C37.5693 114.223 37.3734 114.398 37.2139 114.64C37.0589 114.881 36.9404 115.198 36.8584 115.59C36.7764 115.982 36.7354 116.458 36.7354 117.019V118.953C36.7354 119.4 36.7604 119.794 36.8105 120.136C36.8652 120.478 36.945 120.774 37.0498 121.024C37.1546 121.271 37.2822 121.473 37.4326 121.633C37.583 121.792 37.7562 121.911 37.9521 121.988C38.1527 122.061 38.3737 122.098 38.6152 122.098C38.9251 122.098 39.1963 122.038 39.4287 121.92C39.6611 121.801 39.8548 121.617 40.0098 121.366C40.1693 121.111 40.2878 120.785 40.3652 120.389C40.4427 119.988 40.4814 119.509 40.4814 118.953ZM49.6279 117.23V118.748C49.6279 119.564 49.555 120.252 49.4092 120.812C49.2633 121.373 49.0537 121.824 48.7803 122.166C48.5068 122.508 48.1764 122.756 47.7891 122.911C47.4062 123.062 46.9733 123.137 46.4902 123.137C46.1074 123.137 45.7542 123.089 45.4307 122.993C45.1071 122.897 44.8154 122.745 44.5557 122.535C44.3005 122.321 44.0817 122.043 43.8994 121.701C43.7171 121.359 43.5781 120.945 43.4824 120.457C43.3867 119.969 43.3389 119.4 43.3389 118.748V117.23C43.3389 116.415 43.4118 115.731 43.5576 115.18C43.708 114.628 43.9199 114.186 44.1934 113.854C44.4668 113.516 44.7949 113.275 45.1777 113.129C45.5651 112.983 45.998 112.91 46.4766 112.91C46.8639 112.91 47.2194 112.958 47.543 113.054C47.8711 113.145 48.1628 113.293 48.418 113.498C48.6732 113.699 48.8896 113.967 49.0674 114.305C49.2497 114.637 49.3887 115.045 49.4844 115.528C49.5801 116.011 49.6279 116.579 49.6279 117.23ZM48.3564 118.953V117.019C48.3564 116.572 48.3291 116.18 48.2744 115.843C48.2243 115.501 48.1491 115.209 48.0488 114.968C47.9486 114.726 47.821 114.53 47.666 114.38C47.5156 114.229 47.3402 114.12 47.1396 114.052C46.9437 113.979 46.7227 113.942 46.4766 113.942C46.1758 113.942 45.9092 113.999 45.6768 114.113C45.4443 114.223 45.2484 114.398 45.0889 114.64C44.9339 114.881 44.8154 115.198 44.7334 115.59C44.6514 115.982 44.6104 116.458 44.6104 117.019V118.953C44.6104 119.4 44.6354 119.794 44.6855 120.136C44.7402 120.478 44.82 120.774 44.9248 121.024C45.0296 121.271 45.1572 121.473 45.3076 121.633C45.458 121.792 45.6312 121.911 45.8271 121.988C46.0277 122.061 46.2487 122.098 46.4902 122.098C46.8001 122.098 47.0713 122.038 47.3037 121.92C47.5361 121.801 47.7298 121.617 47.8848 121.366C48.0443 121.111 48.1628 120.785 48.2402 120.389C48.3177 119.988 48.3564 119.509 48.3564 118.953ZM57.5029 117.23V118.748C57.5029 119.564 57.43 120.252 57.2842 120.812C57.1383 121.373 56.9287 121.824 56.6553 122.166C56.3818 122.508 56.0514 122.756 55.6641 122.911C55.2812 123.062 54.8483 123.137 54.3652 123.137C53.9824 123.137 53.6292 123.089 53.3057 122.993C52.9821 122.897 52.6904 122.745 52.4307 122.535C52.1755 122.321 51.9567 122.043 51.7744 121.701C51.5921 121.359 51.4531 120.945 51.3574 120.457C51.2617 119.969 51.2139 119.4 51.2139 118.748V117.23C51.2139 116.415 51.2868 115.731 51.4326 115.18C51.583 114.628 51.7949 114.186 52.0684 113.854C52.3418 113.516 52.6699 113.275 53.0527 113.129C53.4401 112.983 53.873 112.91 54.3516 112.91C54.7389 112.91 55.0944 112.958 55.418 113.054C55.7461 113.145 56.0378 113.293 56.293 113.498C56.5482 113.699 56.7646 113.967 56.9424 114.305C57.1247 114.637 57.2637 115.045 57.3594 115.528C57.4551 116.011 57.5029 116.579 57.5029 117.23ZM56.2314 118.953V117.019C56.2314 116.572 56.2041 116.18 56.1494 115.843C56.0993 115.501 56.0241 115.209 55.9238 114.968C55.8236 114.726 55.696 114.53 55.541 114.38C55.3906 114.229 55.2152 114.12 55.0146 114.052C54.8187 113.979 54.5977 113.942 54.3516 113.942C54.0508 113.942 53.7842 113.999 53.5518 114.113C53.3193 114.223 53.1234 114.398 52.9639 114.64C52.8089 114.881 52.6904 115.198 52.6084 115.59C52.5264 115.982 52.4854 116.458 52.4854 117.019V118.953C52.4854 119.4 52.5104 119.794 52.5605 120.136C52.6152 120.478 52.695 120.774 52.7998 121.024C52.9046 121.271 53.0322 121.473 53.1826 121.633C53.333 121.792 53.5062 121.911 53.7021 121.988C53.9027 122.061 54.1237 122.098 54.3652 122.098C54.6751 122.098 54.9463 122.038 55.1787 121.92C55.4111 121.801 55.6048 121.617 55.7598 121.366C55.9193 121.111 56.0378 120.785 56.1152 120.389C56.1927 119.988 56.2314 119.509 56.2314 118.953ZM60.5449 112.5V113.375C60.5449 113.648 60.4971 113.938 60.4014 114.243C60.3102 114.544 60.1758 114.836 59.998 115.118C59.8203 115.396 59.6061 115.64 59.3555 115.85L58.6309 115.351C58.8451 115.05 59.0068 114.742 59.1162 114.428C59.2301 114.109 59.2871 113.765 59.2871 113.396V112.5H60.5449ZM68.1807 117.23V118.748C68.1807 119.564 68.1077 120.252 67.9619 120.812C67.8161 121.373 67.6064 121.824 67.333 122.166C67.0596 122.508 66.7292 122.756 66.3418 122.911C65.959 123.062 65.526 123.137 65.043 123.137C64.6602 123.137 64.307 123.089 63.9834 122.993C63.6598 122.897 63.3682 122.745 63.1084 122.535C62.8532 122.321 62.6344 122.043 62.4521 121.701C62.2699 121.359 62.1309 120.945 62.0352 120.457C61.9395 119.969 61.8916 119.4 61.8916 118.748V117.23C61.8916 116.415 61.9645 115.731 62.1104 115.18C62.2607 114.628 62.4727 114.186 62.7461 113.854C63.0195 113.516 63.3477 113.275 63.7305 113.129C64.1178 112.983 64.5508 112.91 65.0293 112.91C65.4167 112.91 65.7721 112.958 66.0957 113.054C66.4238 113.145 66.7155 113.293 66.9707 113.498C67.2259 113.699 67.4424 113.967 67.6201 114.305C67.8024 114.637 67.9414 115.045 68.0371 115.528C68.1328 116.011 68.1807 116.579 68.1807 117.23ZM66.9092 118.953V117.019C66.9092 116.572 66.8818 116.18 66.8271 115.843C66.777 115.501 66.7018 115.209 66.6016 114.968C66.5013 114.726 66.3737 114.53 66.2188 114.38C66.0684 114.229 65.8929 114.12 65.6924 114.052C65.4964 113.979 65.2754 113.942 65.0293 113.942C64.7285 113.942 64.4619 113.999 64.2295 114.113C63.9971 114.223 63.8011 114.398 63.6416 114.64C63.4867 114.881 63.3682 115.198 63.2861 115.59C63.2041 115.982 63.1631 116.458 63.1631 117.019V118.953C63.1631 119.4 63.1882 119.794 63.2383 120.136C63.293 120.478 63.3727 120.774 63.4775 121.024C63.5824 121.271 63.71 121.473 63.8604 121.633C64.0107 121.792 64.1839 121.911 64.3799 121.988C64.5804 122.061 64.8014 122.098 65.043 122.098C65.3529 122.098 65.624 122.038 65.8564 121.92C66.0889 121.801 66.2826 121.617 66.4375 121.366C66.597 121.111 66.7155 120.785 66.793 120.389C66.8704 119.988 66.9092 119.509 66.9092 118.953ZM76.0557 117.23V118.748C76.0557 119.564 75.9827 120.252 75.8369 120.812C75.6911 121.373 75.4814 121.824 75.208 122.166C74.9346 122.508 74.6042 122.756 74.2168 122.911C73.834 123.062 73.401 123.137 72.918 123.137C72.5352 123.137 72.182 123.089 71.8584 122.993C71.5348 122.897 71.2432 122.745 70.9834 122.535C70.7282 122.321 70.5094 122.043 70.3271 121.701C70.1449 121.359 70.0059 120.945 69.9102 120.457C69.8145 119.969 69.7666 119.4 69.7666 118.748V117.23C69.7666 116.415 69.8395 115.731 69.9854 115.18C70.1357 114.628 70.3477 114.186 70.6211 113.854C70.8945 113.516 71.2227 113.275 71.6055 113.129C71.9928 112.983 72.4258 112.91 72.9043 112.91C73.2917 112.91 73.6471 112.958 73.9707 113.054C74.2988 113.145 74.5905 113.293 74.8457 113.498C75.1009 113.699 75.3174 113.967 75.4951 114.305C75.6774 114.637 75.8164 115.045 75.9121 115.528C76.0078 116.011 76.0557 116.579 76.0557 117.23ZM74.7842 118.953V117.019C74.7842 116.572 74.7568 116.18 74.7021 115.843C74.652 115.501 74.5768 115.209 74.4766 114.968C74.3763 114.726 74.2487 114.53 74.0938 114.38C73.9434 114.229 73.7679 114.12 73.5674 114.052C73.3714 113.979 73.1504 113.942 72.9043 113.942C72.6035 113.942 72.3369 113.999 72.1045 114.113C71.8721 114.223 71.6761 114.398 71.5166 114.64C71.3617 114.881 71.2432 115.198 71.1611 115.59C71.0791 115.982 71.0381 116.458 71.0381 117.019V118.953C71.0381 119.4 71.0632 119.794 71.1133 120.136C71.168 120.478 71.2477 120.774 71.3525 121.024C71.4574 121.271 71.585 121.473 71.7354 121.633C71.8857 121.792 72.0589 121.911 72.2549 121.988C72.4554 122.061 72.6764 122.098 72.918 122.098C73.2279 122.098 73.499 122.038 73.7314 121.92C73.9639 121.801 74.1576 121.617 74.3125 121.366C74.472 121.111 74.5905 120.785 74.668 120.389C74.7454 119.988 74.7842 119.509 74.7842 118.953ZM83.9307 117.23V118.748C83.9307 119.564 83.8577 120.252 83.7119 120.812C83.5661 121.373 83.3564 121.824 83.083 122.166C82.8096 122.508 82.4792 122.756 82.0918 122.911C81.709 123.062 81.276 123.137 80.793 123.137C80.4102 123.137 80.057 123.089 79.7334 122.993C79.4098 122.897 79.1182 122.745 78.8584 122.535C78.6032 122.321 78.3844 122.043 78.2021 121.701C78.0199 121.359 77.8809 120.945 77.7852 120.457C77.6895 119.969 77.6416 119.4 77.6416 118.748V117.23C77.6416 116.415 77.7145 115.731 77.8604 115.18C78.0107 114.628 78.2227 114.186 78.4961 113.854C78.7695 113.516 79.0977 113.275 79.4805 113.129C79.8678 112.983 80.3008 112.91 80.7793 112.91C81.1667 112.91 81.5221 112.958 81.8457 113.054C82.1738 113.145 82.4655 113.293 82.7207 113.498C82.9759 113.699 83.1924 113.967 83.3701 114.305C83.5524 114.637 83.6914 115.045 83.7871 115.528C83.8828 116.011 83.9307 116.579 83.9307 117.23ZM82.6592 118.953V117.019C82.6592 116.572 82.6318 116.18 82.5771 115.843C82.527 115.501 82.4518 115.209 82.3516 114.968C82.2513 114.726 82.1237 114.53 81.9688 114.38C81.8184 114.229 81.6429 114.12 81.4424 114.052C81.2464 113.979 81.0254 113.942 80.7793 113.942C80.4785 113.942 80.2119 113.999 79.9795 114.113C79.7471 114.223 79.5511 114.398 79.3916 114.64C79.2367 114.881 79.1182 115.198 79.0361 115.59C78.9541 115.982 78.9131 116.458 78.9131 117.019V118.953C78.9131 119.4 78.9382 119.794 78.9883 120.136C79.043 120.478 79.1227 120.774 79.2275 121.024C79.3324 121.271 79.46 121.473 79.6104 121.633C79.7607 121.792 79.9339 121.911 80.1299 121.988C80.3304 122.061 80.5514 122.098 80.793 122.098C81.1029 122.098 81.374 122.038 81.6064 121.92C81.8389 121.801 82.0326 121.617 82.1875 121.366C82.347 121.111 82.4655 120.785 82.543 120.389C82.6204 119.988 82.6592 119.509 82.6592 118.953Z" fill="#71717A"/>
<path d="M31.0752 155.23V156.748C31.0752 157.564 31.0023 158.252 30.8564 158.812C30.7106 159.373 30.501 159.824 30.2275 160.166C29.9541 160.508 29.6237 160.756 29.2363 160.911C28.8535 161.062 28.4206 161.137 27.9375 161.137C27.5547 161.137 27.2015 161.089 26.8779 160.993C26.5544 160.897 26.2627 160.745 26.0029 160.535C25.7477 160.321 25.529 160.043 25.3467 159.701C25.1644 159.359 25.0254 158.945 24.9297 158.457C24.834 157.969 24.7861 157.4 24.7861 156.748V155.23C24.7861 154.415 24.859 153.731 25.0049 153.18C25.1553 152.628 25.3672 152.186 25.6406 151.854C25.9141 151.516 26.2422 151.275 26.625 151.129C27.0124 150.983 27.4453 150.91 27.9238 150.91C28.3112 150.91 28.6667 150.958 28.9902 151.054C29.3184 151.145 29.61 151.293 29.8652 151.498C30.1204 151.699 30.3369 151.967 30.5146 152.305C30.6969 152.637 30.8359 153.045 30.9316 153.528C31.0273 154.011 31.0752 154.579 31.0752 155.23ZM29.8037 156.953V155.019C29.8037 154.572 29.7764 154.18 29.7217 153.843C29.6715 153.501 29.5964 153.209 29.4961 152.968C29.3958 152.726 29.2682 152.53 29.1133 152.38C28.9629 152.229 28.7874 152.12 28.5869 152.052C28.391 151.979 28.1699 151.942 27.9238 151.942C27.623 151.942 27.3564 151.999 27.124 152.113C26.8916 152.223 26.6956 152.398 26.5361 152.64C26.3812 152.881 26.2627 153.198 26.1807 153.59C26.0986 153.982 26.0576 154.458 26.0576 155.019V156.953C26.0576 157.4 26.0827 157.794 26.1328 158.136C26.1875 158.478 26.2673 158.774 26.3721 159.024C26.4769 159.271 26.6045 159.473 26.7549 159.633C26.9053 159.792 27.0785 159.911 27.2744 159.988C27.4749 160.061 27.696 160.098 27.9375 160.098C28.2474 160.098 28.5186 160.038 28.751 159.92C28.9834 159.801 29.1771 159.617 29.332 159.366C29.4915 159.111 29.61 158.785 29.6875 158.389C29.765 157.988 29.8037 157.509 29.8037 156.953Z" fill="#71717A"/>
<path d="M102 40C102 35.5817 105.582 32 110 32C114.418 32 118 35.5817 118 40V162H102V40Z" fill="#84CC16"/>
<path d="M118 75C118 70.5817 121.582 67 126 67C130.418 67 134 70.5817 134 75V162H118V75Z" fill="#F97316"/>
<path d="M113.832 186.095V179.047H115.145V186.095C115.145 186.751 115.01 187.305 114.741 187.756C114.472 188.207 114.101 188.551 113.627 188.788C113.158 189.021 112.618 189.137 112.007 189.137C111.396 189.137 110.854 189.032 110.38 188.822C109.906 188.613 109.535 188.294 109.266 187.865C108.997 187.437 108.862 186.897 108.862 186.245H110.182C110.182 186.664 110.259 187.008 110.414 187.277C110.569 187.546 110.783 187.744 111.057 187.872C111.335 188 111.651 188.063 112.007 188.063C112.353 188.063 112.663 187.991 112.937 187.845C113.215 187.694 113.433 187.473 113.593 187.182C113.752 186.885 113.832 186.523 113.832 186.095ZM121.714 187.291V181.604H122.985V189H121.775L121.714 187.291ZM121.953 185.732L122.479 185.719C122.479 186.211 122.427 186.667 122.322 187.086C122.222 187.501 122.058 187.861 121.83 188.166C121.602 188.471 121.304 188.711 120.935 188.884C120.565 189.052 120.117 189.137 119.588 189.137C119.228 189.137 118.897 189.084 118.597 188.979C118.3 188.875 118.045 188.713 117.831 188.494C117.617 188.275 117.451 187.991 117.332 187.64C117.218 187.289 117.161 186.867 117.161 186.375V181.604H118.426V186.389C118.426 186.721 118.462 186.997 118.535 187.216C118.613 187.43 118.715 187.601 118.843 187.729C118.975 187.852 119.121 187.938 119.28 187.988C119.444 188.038 119.613 188.063 119.786 188.063C120.324 188.063 120.75 187.961 121.064 187.756C121.379 187.546 121.604 187.266 121.741 186.915C121.882 186.56 121.953 186.165 121.953 185.732ZM126.287 178.5V189H125.016V178.5H126.287Z" fill="#71717A"/>
<path d="M174 40C174 35.5817 177.582 32 182 32C186.418 32 190 35.5817 190 40V162H174V40Z" fill="#84CC16"/>
<path d="M190 75C190 70.5817 193.582 67 198 67C202.418 67 206 70.5817 206 75V162H190V75Z" fill="#F97316"/>
<path d="M185.832 186.095V179.047H187.145V186.095C187.145 186.751 187.01 187.305 186.741 187.756C186.472 188.207 186.101 188.551 185.627 188.788C185.158 189.021 184.618 189.137 184.007 189.137C183.396 189.137 182.854 189.032 182.38 188.822C181.906 188.613 181.535 188.294 181.266 187.865C180.997 187.437 180.862 186.897 180.862 186.245H182.182C182.182 186.664 182.259 187.008 182.414 187.277C182.569 187.546 182.783 187.744 183.057 187.872C183.335 188 183.651 188.063 184.007 188.063C184.353 188.063 184.663 187.991 184.937 187.845C185.215 187.694 185.433 187.473 185.593 187.182C185.752 186.885 185.832 186.523 185.832 186.095ZM193.714 187.291V181.604H194.985V189H193.775L193.714 187.291ZM193.953 185.732L194.479 185.719C194.479 186.211 194.427 186.667 194.322 187.086C194.222 187.501 194.058 187.861 193.83 188.166C193.602 188.471 193.304 188.711 192.935 188.884C192.565 189.052 192.117 189.137 191.588 189.137C191.228 189.137 190.897 189.084 190.597 188.979C190.3 188.875 190.045 188.713 189.831 188.494C189.617 188.275 189.451 187.991 189.332 187.64C189.218 187.289 189.161 186.867 189.161 186.375V181.604H190.426V186.389C190.426 186.721 190.462 186.997 190.535 187.216C190.613 187.43 190.715 187.601 190.843 187.729C190.975 187.852 191.121 187.938 191.28 187.988C191.444 188.038 191.613 188.063 191.786 188.063C192.324 188.063 192.75 187.961 193.064 187.756C193.379 187.546 193.604 187.266 193.741 186.915C193.882 186.56 193.953 186.165 193.953 185.732ZM198.287 178.5V189H197.016V178.5H198.287Z" fill="#71717A"/>
<path d="M246 40C246 35.5817 249.582 32 254 32C258.418 32 262 35.5817 262 40V162H246V40Z" fill="#84CC16"/>
<path d="M262 75C262 70.5817 265.582 67 270 67C274.418 67 278 70.5817 278 75V162H262V75Z" fill="#F97316"/>
<path d="M257.832 186.095V179.047H259.145V186.095C259.145 186.751 259.01 187.305 258.741 187.756C258.472 188.207 258.101 188.551 257.627 188.788C257.158 189.021 256.618 189.137 256.007 189.137C255.396 189.137 254.854 189.032 254.38 188.822C253.906 188.613 253.535 188.294 253.266 187.865C252.997 187.437 252.862 186.897 252.862 186.245H254.182C254.182 186.664 254.259 187.008 254.414 187.277C254.569 187.546 254.783 187.744 255.057 187.872C255.335 188 255.651 188.063 256.007 188.063C256.353 188.063 256.663 187.991 256.937 187.845C257.215 187.694 257.433 187.473 257.593 187.182C257.752 186.885 257.832 186.523 257.832 186.095ZM265.714 187.291V181.604H266.985V189H265.775L265.714 187.291ZM265.953 185.732L266.479 185.719C266.479 186.211 266.427 186.667 266.322 187.086C266.222 187.501 266.058 187.861 265.83 188.166C265.602 188.471 265.304 188.711 264.935 188.884C264.565 189.052 264.117 189.137 263.588 189.137C263.228 189.137 262.897 189.084 262.597 188.979C262.3 188.875 262.045 188.713 261.831 188.494C261.617 188.275 261.451 187.991 261.332 187.64C261.218 187.289 261.161 186.867 261.161 186.375V181.604H262.426V186.389C262.426 186.721 262.462 186.997 262.535 187.216C262.613 187.43 262.715 187.601 262.843 187.729C262.975 187.852 263.121 187.938 263.28 187.988C263.444 188.038 263.613 188.063 263.786 188.063C264.324 188.063 264.75 187.961 265.064 187.756C265.379 187.546 265.604 187.266 265.741 186.915C265.882 186.56 265.953 186.165 265.953 185.732ZM270.287 178.5V189H269.016V178.5H270.287Z" fill="#71717A"/>
<path d="M318 40C318 35.5817 321.582 32 326 32C330.418 32 334 35.5817 334 40V162H318V40Z" fill="#84CC16"/>
<path d="M334 75C334 70.5817 337.582 67 342 67C346.418 67 350 70.5817 350 75V162H334V75Z" fill="#F97316"/>
<path d="M329.832 186.095V179.047H331.145V186.095C331.145 186.751 331.01 187.305 330.741 187.756C330.472 188.207 330.101 188.551 329.627 188.788C329.158 189.021 328.618 189.137 328.007 189.137C327.396 189.137 326.854 189.032 326.38 188.822C325.906 188.613 325.535 188.294 325.266 187.865C324.997 187.437 324.862 186.897 324.862 186.245H326.182C326.182 186.664 326.259 187.008 326.414 187.277C326.569 187.546 326.783 187.744 327.057 187.872C327.335 188 327.651 188.063 328.007 188.063C328.353 188.063 328.663 187.991 328.937 187.845C329.215 187.694 329.433 187.473 329.593 187.182C329.752 186.885 329.832 186.523 329.832 186.095ZM337.714 187.291V181.604H338.985V189H337.775L337.714 187.291ZM337.953 185.732L338.479 185.719C338.479 186.211 338.427 186.667 338.322 187.086C338.222 187.501 338.058 187.861 337.83 188.166C337.602 188.471 337.304 188.711 336.935 188.884C336.565 189.052 336.117 189.137 335.588 189.137C335.228 189.137 334.897 189.084 334.597 188.979C334.3 188.875 334.045 188.713 333.831 188.494C333.617 188.275 333.451 187.991 333.332 187.64C333.218 187.289 333.161 186.867 333.161 186.375V181.604H334.426V186.389C334.426 186.721 334.462 186.997 334.535 187.216C334.613 187.43 334.715 187.601 334.843 187.729C334.975 187.852 335.121 187.938 335.28 187.988C335.444 188.038 335.613 188.063 335.786 188.063C336.324 188.063 336.75 187.961 337.064 187.756C337.379 187.546 337.604 187.266 337.741 186.915C337.882 186.56 337.953 186.165 337.953 185.732ZM342.287 178.5V189H341.016V178.5H342.287Z" fill="#71717A"/>
<path d="M390 40C390 35.5817 393.582 32 398 32C402.418 32 406 35.5817 406 40V162H390V40Z" fill="#84CC16"/>
<path d="M406 75C406 70.5817 409.582 67 414 67C418.418 67 422 70.5817 422 75V162H406V75Z" fill="#F97316"/>
<path d="M401.832 186.095V179.047H403.145V186.095C403.145 186.751 403.01 187.305 402.741 187.756C402.472 188.207 402.101 188.551 401.627 188.788C401.158 189.021 400.618 189.137 400.007 189.137C399.396 189.137 398.854 189.032 398.38 188.822C397.906 188.613 397.535 188.294 397.266 187.865C396.997 187.437 396.862 186.897 396.862 186.245H398.182C398.182 186.664 398.259 187.008 398.414 187.277C398.569 187.546 398.783 187.744 399.057 187.872C399.335 188 399.651 188.063 400.007 188.063C400.353 188.063 400.663 187.991 400.937 187.845C401.215 187.694 401.433 187.473 401.593 187.182C401.752 186.885 401.832 186.523 401.832 186.095ZM409.714 187.291V181.604H410.985V189H409.775L409.714 187.291ZM409.953 185.732L410.479 185.719C410.479 186.211 410.427 186.667 410.322 187.086C410.222 187.501 410.058 187.861 409.83 188.166C409.602 188.471 409.304 188.711 408.935 188.884C408.565 189.052 408.117 189.137 407.588 189.137C407.228 189.137 406.897 189.084 406.597 188.979C406.3 188.875 406.045 188.713 405.831 188.494C405.617 188.275 405.451 187.991 405.332 187.64C405.218 187.289 405.161 186.867 405.161 186.375V181.604H406.426V186.389C406.426 186.721 406.462 186.997 406.535 187.216C406.613 187.43 406.715 187.601 406.843 187.729C406.975 187.852 407.121 187.938 407.28 187.988C407.444 188.038 407.613 188.063 407.786 188.063C408.324 188.063 408.75 187.961 409.064 187.756C409.379 187.546 409.604 187.266 409.741 186.915C409.882 186.56 409.953 186.165 409.953 185.732ZM414.287 178.5V189H413.016V178.5H414.287Z" fill="#71717A"/>
<path d="M462 40C462 35.5817 465.582 32 470 32C474.418 32 478 35.5817 478 40V162H462V40Z" fill="#84CC16"/>
<path d="M478 75C478 70.5817 481.582 67 486 67C490.418 67 494 70.5817 494 75V162H478V75Z" fill="#F97316"/>
<path d="M473.832 186.095V179.047H475.145V186.095C475.145 186.751 475.01 187.305 474.741 187.756C474.472 188.207 474.101 188.551 473.627 188.788C473.158 189.021 472.618 189.137 472.007 189.137C471.396 189.137 470.854 189.032 470.38 188.822C469.906 188.613 469.535 188.294 469.266 187.865C468.997 187.437 468.862 186.897 468.862 186.245H470.182C470.182 186.664 470.259 187.008 470.414 187.277C470.569 187.546 470.783 187.744 471.057 187.872C471.335 188 471.651 188.063 472.007 188.063C472.353 188.063 472.663 187.991 472.937 187.845C473.215 187.694 473.433 187.473 473.593 187.182C473.752 186.885 473.832 186.523 473.832 186.095ZM481.714 187.291V181.604H482.985V189H481.775L481.714 187.291ZM481.953 185.732L482.479 185.719C482.479 186.211 482.427 186.667 482.322 187.086C482.222 187.501 482.058 187.861 481.83 188.166C481.602 188.471 481.304 188.711 480.935 188.884C480.565 189.052 480.117 189.137 479.588 189.137C479.228 189.137 478.897 189.084 478.597 188.979C478.3 188.875 478.045 188.713 477.831 188.494C477.617 188.275 477.451 187.991 477.332 187.64C477.218 187.289 477.161 186.867 477.161 186.375V181.604H478.426V186.389C478.426 186.721 478.462 186.997 478.535 187.216C478.613 187.43 478.715 187.601 478.843 187.729C478.975 187.852 479.121 187.938 479.28 187.988C479.444 188.038 479.613 188.063 479.786 188.063C480.324 188.063 480.75 187.961 481.064 187.756C481.379 187.546 481.604 187.266 481.741 186.915C481.882 186.56 481.953 186.165 481.953 185.732ZM486.287 178.5V189H485.016V178.5H486.287Z" fill="#71717A"/>
<path d="M534 40C534 35.5817 537.582 32 542 32C546.418 32 550 35.5817 550 40V162H534V40Z" fill="#84CC16"/>
<path d="M550 75C550 70.5817 553.582 67 558 67C562.418 67 566 70.5817 566 75V162H550V75Z" fill="#F97316"/>
<path d="M545.832 186.095V179.047H547.145V186.095C547.145 186.751 547.01 187.305 546.741 187.756C546.472 188.207 546.101 188.551 545.627 188.788C545.158 189.021 544.618 189.137 544.007 189.137C543.396 189.137 542.854 189.032 542.38 188.822C541.906 188.613 541.535 188.294 541.266 187.865C540.997 187.437 540.862 186.897 540.862 186.245H542.182C542.182 186.664 542.259 187.008 542.414 187.277C542.569 187.546 542.783 187.744 543.057 187.872C543.335 188 543.651 188.063 544.007 188.063C544.353 188.063 544.663 187.991 544.937 187.845C545.215 187.694 545.433 187.473 545.593 187.182C545.752 186.885 545.832 186.523 545.832 186.095ZM553.714 187.291V181.604H554.985V189H553.775L553.714 187.291ZM553.953 185.732L554.479 185.719C554.479 186.211 554.427 186.667 554.322 187.086C554.222 187.501 554.058 187.861 553.83 188.166C553.602 188.471 553.304 188.711 552.935 188.884C552.565 189.052 552.117 189.137 551.588 189.137C551.228 189.137 550.897 189.084 550.597 188.979C550.3 188.875 550.045 188.713 549.831 188.494C549.617 188.275 549.451 187.991 549.332 187.64C549.218 187.289 549.161 186.867 549.161 186.375V181.604H550.426V186.389C550.426 186.721 550.462 186.997 550.535 187.216C550.613 187.43 550.715 187.601 550.843 187.729C550.975 187.852 551.121 187.938 551.28 187.988C551.444 188.038 551.613 188.063 551.786 188.063C552.324 188.063 552.75 187.961 553.064 187.756C553.379 187.546 553.604 187.266 553.741 186.915C553.882 186.56 553.953 186.165 553.953 185.732ZM558.287 178.5V189H557.016V178.5H558.287Z" fill="#71717A"/>
</svg>
